# xmcd
#
# Track frame offsets: 
#        200
#        17612
#        33102
#        48997
#        66862
#        78982
#        96937
#        116715
#        132582
#        151422
#        169462
#        190002
#        211645
#
# Disc length: 2975 seconds
#
# Revision: 0
# Processed by: cddbd v1.4PL0 Copyright (c) Steve Scherf et al.
# Submitted via: ExactAudioCopy v0.90b4
#
DISCID=a80b9d0d
DTITLE=Nie Neute - Het Ritme van het Kruis
DYEAR=1995
DGENRE=Blues
TTITLE0=Edde gij da nie
TTITLE1=Vera
TTITLE2=Het Ritme van het Kruis
TTITLE3='t Spaat ma Vriet
TTITLE4=Sabine
TTITLE5=Ne Slag op zane Meule
TTITLE6=Nie mier dan Normal
TTITLE7=Mdm Madou
TTITLE8=En guul klein beetse Mens
TTITLE9=Goe van Af
TTITLE10='k E den Blues
TTITLE11=Villa op de Poef
TTITLE12=Vaver zonder Vis
EXTD=
EXTT0=
EXTT1=
EXTT2=
EXTT3=
EXTT4=
EXTT5=
EXTT6=
EXTT7=
EXTT8=
EXTT9=
EXTT10=
EXTT11=
EXTT12=
PLAYORDER=
